<svg id="Layer_1" data-name="Layer 1" xmlns="http://www.w3.org/2000/svg" viewBox="0 0 512 512"><defs><style>.cls-1{fill:#d9e4e8;}.cls-2{fill:#79d3d3;}.cls-3{fill:#fff;}.cls-4{fill:#141f38;}.cls-5{fill:#f4607f;fill-rule:evenodd;}</style></defs><title>calendar-heart-filled</title><path class="cls-1" d="M499.2,102.4V428.8a70.48,70.48,0,0,1-70.4,70.4H83.2a70.48,70.48,0,0,1-70.4-70.4V102.4A51.26,51.26,0,0,1,64,51.2H448A51.26,51.26,0,0,1,499.2,102.4Z"/><path class="cls-2" d="M12.8,166.4v-64A51.26,51.26,0,0,1,64,51.2H448a51.26,51.26,0,0,1,51.2,51.2v64Z"/><path class="cls-3" d="M140.8,89.6A25.63,25.63,0,0,1,115.2,64V38.4a25.6,25.6,0,1,1,51.2,0V64A25.63,25.63,0,0,1,140.8,89.6Z"/><path class="cls-3" d="M371.2,89.6A25.63,25.63,0,0,1,345.6,64V38.4a25.6,25.6,0,0,1,51.2,0V64A25.63,25.63,0,0,1,371.2,89.6Z"/><path class="cls-4" d="M448,38.4H409.6a38.4,38.4,0,0,0-76.8,0H179.2a38.4,38.4,0,1,0-76.8,0H64a64,64,0,0,0-64,64V428.8A83.2,83.2,0,0,0,83.2,512H428.8A83.2,83.2,0,0,0,512,428.8V102.4A64,64,0,0,0,448,38.4Zm-89.6,0a12.8,12.8,0,0,1,25.6,0V64a12.8,12.8,0,0,1-25.6,0ZM128,38.4a12.8,12.8,0,1,1,25.6,0V64A12.8,12.8,0,1,1,128,64Zm-102.4,64A38.33,38.33,0,0,1,42.54,70.57,38.18,38.18,0,0,1,64,64h38.4a38.4,38.4,0,1,0,76.8,0H332.8a38.4,38.4,0,0,0,76.8,0H448a38.44,38.44,0,0,1,38.2,34.48,38.69,38.69,0,0,1,.2,3.92v51.2H25.6Zm403.2,384H83.2a57.56,57.56,0,0,1-53-35.33A63.61,63.61,0,0,0,64,460.8H448a63.61,63.61,0,0,0,33.8-9.73A57.56,57.56,0,0,1,428.8,486.4Zm57.6-89.6A38.44,38.44,0,0,1,448,435.2H64a38.44,38.44,0,0,1-38.4-38.4V179.2H486.4Z"/><path class="cls-5" d="M332.8,283.87a40,40,0,0,1-7,22.72c-.82,1.22-1.77,2.38-2.71,3.53l-.29.36c-9.48,10.68-19.22,21.11-28.46,32-6.74,8-13.14,17.67-21.81,23.68a29.5,29.5,0,0,1-16.31,5.06c-15.26,0-24.6-13.27-33.61-23.61s-18.28-20.81-27.48-31.14c-2.31-2.6-4.61-5.21-6.91-7.82a6.31,6.31,0,0,1-.59-.76l-1.18-1.63a39.39,39.39,0,0,1-6.84-22.36c0-22.48,18.44-40.67,41.24-40.67A41.23,41.23,0,0,1,256.2,263a41.22,41.22,0,0,1,35.36-19.76C314.36,243.2,332.8,261.39,332.8,283.87Z"/><path class="cls-4" d="M256.2,384c-19.49,0-31.54-14.21-40.34-24.59-1-1.16-2-2.31-2.92-3.42-8-9.19-16.72-19.05-27.39-31q-2.94-3.3-5.84-6.62l-1-1.1a17,17,0,0,1-1.45-1.81l-1.42-2a52.21,52.21,0,0,1-9.07-29.58c0-29.48,24.24-53.47,54-53.47a54.62,54.62,0,0,1,35.36,13.07,54.62,54.62,0,0,1,35.36-13.07c29.8,0,54,24,54,53.47a52.79,52.79,0,0,1-9.25,30c-1.1,1.63-2.29,3.09-3.35,4.38l-.65.77c-3.36,3.78-6.78,7.57-10.1,11.24-6.05,6.69-12.31,13.62-18.18,20.54-1.55,1.82-3.11,3.8-4.77,5.89-5.36,6.77-11.45,14.44-19.5,20A42.35,42.35,0,0,1,256.2,384ZM198,300.36l.94,1.07q2.87,3.26,5.74,6.5c10.73,12.05,19.49,22,27.57,31.24,1,1.2,2.09,2.43,3.15,3.68,8,9.39,13.71,15.55,20.82,15.55a16.63,16.63,0,0,0,9-2.77c4.94-3.43,9.36-9,14-14.89,1.71-2.16,3.48-4.4,5.31-6.55,6.14-7.23,12.53-14.3,18.71-21.14,3.22-3.57,6.56-7.25,9.79-10.89l.15-.18c.75-.91,1.48-1.82,2-2.56A27.36,27.36,0,0,0,320,283.87C320,268.5,307.24,256,291.56,256a28.26,28.26,0,0,0-24.41,13.59L256.2,287.65l-10.95-18.05A28.26,28.26,0,0,0,220.84,256c-15.68,0-28.44,12.5-28.44,27.87a26.72,26.72,0,0,0,4.52,15Zm.21.29h0Z"/></svg>