<?xml version="1.0" ?><svg enable-background="new 0 0 64 64" version="1.1" viewBox="0 0 64 64" xml:space="preserve" xmlns="http://www.w3.org/2000/svg" xmlns:xlink="http://www.w3.org/1999/xlink"><g id="Layer_1"/><g id="Layer_2"><g><path d="M55.728,25.579v-10.71c0-1.455-1.185-2.64-2.64-2.64h-6.13v-0.261c0-0.909-0.354-1.772-1.002-2.437    c-0.637-0.638-1.525-1.003-2.438-1.003c-1.897,0-3.44,1.543-3.44,3.439v0.261h-4.64v-0.261c0-0.909-0.354-1.772-1.002-2.437    c-0.637-0.638-1.525-1.003-2.437-1.003c-1.897,0-3.44,1.543-3.44,3.439v0.261h-4.63v-0.261c0-0.903-0.357-1.766-1.012-2.437    c-0.646-0.646-1.508-1.003-2.428-1.003c-1.902,0-3.45,1.543-3.45,3.439v0.261h-6.12c-1.461,0-2.65,1.185-2.65,2.64v2.402    c0,0.553,0.448,1,1,1s1-0.447,1-1v-2.402c0-0.353,0.292-0.64,0.65-0.64h6.12v3.42c0,1.896,1.547,3.439,3.45,3.439    c1.897,0,3.44-1.543,3.44-3.439v-3.42h4.63v3.42c0,1.896,1.543,3.439,3.44,3.439c1.897,0,3.44-1.543,3.44-3.439v-3.42h4.64v3.42    c0,1.896,1.543,3.439,3.44,3.439s3.44-1.543,3.44-3.439v-3.42h6.13c0.353,0,0.64,0.287,0.64,0.64v9.71h-43.46v-3.723    c0-0.553-0.448-1-1-1s-1,0.447-1,1v4.723V51.93c0,1.951,1.588,3.539,3.54,3.539h40.38c1.952,0,3.54-1.588,3.54-3.539V28.966    c0-0.553-0.448-1-1-1s-1,0.447-1,1V51.93c0,0.849-0.691,1.539-1.54,1.539h-40.38c-0.849,0-1.54-0.69-1.54-1.539V26.579h44.46    C55.28,26.579,55.728,26.132,55.728,25.579z M21.928,17.649c0,0.794-0.646,1.439-1.44,1.439c-0.799,0-1.45-0.646-1.45-1.439v-4.42    v-1.261c0-0.794,0.65-1.439,1.45-1.439c0.385,0,0.744,0.148,1.005,0.409c0.199,0.203,0.435,0.546,0.435,1.03v1.261V17.649z     M33.438,17.649c0,0.794-0.646,1.439-1.44,1.439c-0.794,0-1.44-0.646-1.44-1.439v-4.42v-1.261c0-0.794,0.646-1.439,1.44-1.439    c0.385,0,0.758,0.152,1.015,0.409c0.194,0.198,0.425,0.538,0.425,1.03v1.261V17.649z M44.958,17.649    c0,0.794-0.646,1.439-1.44,1.439c-0.794,0-1.44-0.646-1.44-1.439v-4.42v-1.261c0-0.794,0.646-1.439,1.44-1.439    c0.385,0,0.758,0.152,1.015,0.409c0.194,0.198,0.425,0.538,0.425,1.03v1.261V17.649z"/><path d="M33.921,32.683l-1.371,1.369c-0.144,0.146-0.348,0.219-0.552,0.219c-0.204,0-0.408-0.073-0.553-0.219l-1.37-1.369    c-1.06-1.06-2.472-1.644-3.977-1.644c-1.386,0-2.718,0.505-3.759,1.427c-1.116,1.004-1.753,2.408-1.796,3.955    c-0.045,1.637,0.591,3.242,1.75,4.407l7.733,7.724c0.131,0.133,0.273,0.25,0.424,0.352c0.453,0.306,0.987,0.47,1.548,0.47    c0,0,0,0,0,0s0,0,0,0c0.561,0,1.095-0.164,1.546-0.468c0.15-0.101,0.291-0.218,0.421-0.349l7.907-7.906l0,0l0.001-0.001    c0.122-0.12,0.214-0.26,0.323-0.389c0.132-0.156,0.277-0.303,0.39-0.47c0.071-0.105,0.116-0.223,0.18-0.333    c0.121-0.208,0.25-0.412,0.342-0.633c0.041-0.098,0.058-0.204,0.093-0.304c0.086-0.245,0.177-0.489,0.228-0.745    c0.072-0.36,0.109-0.731,0.109-1.106c0-1.499-0.591-2.915-1.663-3.986C39.688,30.495,36.121,30.495,33.921,32.683z M41.538,36.669    c0,0.966-0.381,1.875-1.077,2.563l-7.915,7.915c-0.144,0.146-0.345,0.221-0.547,0.221c-0.202,0-0.405-0.075-0.555-0.226    l-7.738-7.729c-0.771-0.775-1.195-1.846-1.165-2.938c0.027-0.993,0.43-1.89,1.129-2.518c0.669-0.593,1.531-0.919,2.427-0.919    c0.971,0,1.881,0.376,2.563,1.058l1.37,1.369c0.523,0.523,1.245,0.784,1.968,0.784c0.722,0,1.445-0.261,1.967-0.784l1.368-1.367    c0.709-0.706,1.639-1.058,2.567-1.059c0.928,0,1.856,0.352,2.56,1.057C41.156,34.791,41.538,35.704,41.538,36.669z"/></g></g></svg>